G04 #@! TF.FileFunction,Copper,L1,Top,Signal*
%FSLAX46Y46*%
G04 Gerber Fmt 4.6, Leading zero omitted, Abs format (unit mm)*
G04 Created by KiCad (PCBNEW (2015-06-16 BZR 5762, Git d3b3131)-product) date 9/30/2015 3:41:20 PM*
%MOMM*%
G01*
G04 APERTURE LIST*
%ADD10C,0.100000*%
%ADD11C,0.150000*%
%ADD12C,1.501140*%
%ADD13O,1.600000X1.600000*%
%ADD14R,2.032000X2.032000*%
%ADD15O,2.032000X2.032000*%
%ADD16R,2.000000X2.000000*%
%ADD17C,2.000000*%
%ADD18C,1.998980*%
%ADD19C,0.600000*%
%ADD20C,0.250000*%
G04 APERTURE END LIST*
D10*
D11*
X154472640Y-89740740D02*
X154973020Y-89740740D01*
X154472640Y-89740740D02*
X154472640Y-89240360D01*
X153972260Y-89740740D02*
X154472640Y-89740740D01*
X154472640Y-89740740D02*
X154472640Y-90139520D01*
X154472640Y-90139520D02*
X154472640Y-90241120D01*
X154599640Y-83136740D02*
X155100020Y-83136740D01*
X154599640Y-83136740D02*
X154599640Y-82636360D01*
X154099260Y-83136740D02*
X154599640Y-83136740D01*
X154599640Y-83136740D02*
X154599640Y-83535520D01*
X154599640Y-83535520D02*
X154599640Y-83637120D01*
D12*
X156743400Y-91440000D03*
X154203400Y-91440000D03*
X156870400Y-84836000D03*
X154330400Y-84836000D03*
D13*
X161569400Y-84582000D03*
X161569400Y-87122000D03*
X161569400Y-89662000D03*
X161569400Y-92202000D03*
X169189400Y-92202000D03*
X169189400Y-89662000D03*
X169189400Y-87122000D03*
X169189400Y-84582000D03*
D14*
X135547100Y-98679000D03*
D15*
X133007100Y-98679000D03*
D16*
X172834300Y-92938600D03*
D17*
X175374300Y-92938600D03*
D18*
X174244000Y-84178140D03*
X174244000Y-89179400D03*
D14*
X179997100Y-98679000D03*
D15*
X177457100Y-98679000D03*
D19*
X139029440Y-90246200D03*
D20*
X156743400Y-91440000D02*
X160807400Y-91440000D01*
X160807400Y-91440000D02*
X161569400Y-92202000D01*
X154203400Y-91440000D02*
X154203400Y-91097100D01*
X154203400Y-91097100D02*
X158178500Y-87122000D01*
X158178500Y-87122000D02*
X161569400Y-87122000D01*
X135547100Y-98767900D02*
X135547100Y-99555300D01*
X161569400Y-89662000D02*
X163791900Y-89662000D01*
X163791900Y-89662000D02*
X165023800Y-90893900D01*
X165023800Y-90893900D02*
X165023800Y-92544900D01*
X165023800Y-92544900D02*
X161950400Y-95618300D01*
X161950400Y-95618300D02*
X155295600Y-95618300D01*
X155295600Y-95618300D02*
X150571200Y-90893900D01*
X150571200Y-90893900D02*
X150571200Y-88442800D01*
X154330400Y-84836000D02*
X154330400Y-86652100D01*
X152539700Y-88442800D02*
X150571200Y-88442800D01*
X154330400Y-86652100D02*
X152539700Y-88442800D01*
X168465500Y-94335600D02*
X165023800Y-90893900D01*
X171843700Y-94335600D02*
X168465500Y-94335600D01*
X172834300Y-93345000D02*
X171843700Y-94335600D01*
X172834300Y-92938600D02*
X172834300Y-93345000D01*
X166182040Y-81574640D02*
X169189400Y-84582000D01*
X147701000Y-81574640D02*
X166182040Y-81574640D01*
X139029440Y-90246200D02*
X147701000Y-81574640D01*
X132816600Y-98577400D02*
X133007100Y-98767900D01*
X173840140Y-84582000D02*
X174244000Y-84178140D01*
X169189400Y-84582000D02*
X173840140Y-84582000D01*
X174244000Y-91808300D02*
X175374300Y-92938600D01*
X174244000Y-89179400D02*
X174244000Y-91808300D01*
M02*
