M48
INCH,TZ
T1C0.016
T2C0.030
T3C0.031
T4C0.032
T5C0.039
T6C0.040
%
G90
G05
T1
X54736Y-35530
T2
X53836Y-34078
X53836Y-34708
X54308Y-33763
X54308Y-34393
X54308Y-35023
T3
X63610Y-33300
X63610Y-34300
X63610Y-35300
X63610Y-36300
X66610Y-33300
X66610Y-34300
X66610Y-35300
X66610Y-36300
T4
X60710Y-36000
X60760Y-33400
X61710Y-36000
X61760Y-33400
T5
X68045Y-36590
X68600Y-33141
X68600Y-35110
X69045Y-36590
T6
X52365Y-38850
X53365Y-38850
X69865Y-38850
X70865Y-38850
T3
X52084Y-32956G85X52556Y-32956
G05
X52084Y-35830G85X52556Y-35830
G05
T0
M30
