M48
;DRILL file {KiCad 4.0.7} date Thursday, December 14, 2017 'PMt' 09:42:44 PM
;FORMAT={-:-/ absolute / inch / decimal}
FMAT,2
INCH,TZ
T1C0.016
T2C0.020
T3C0.022
T4C0.024
T5C0.028
T6C0.031
T7C0.035
T8C0.039
T9C0.043
%
G90
G05
M72
T1
X6.345Y-4.411
T4
X6.503Y-4.114
X6.553Y-4.114
X6.603Y-4.114
X7.6005Y-4.29
X7.6005Y-4.34
X7.6005Y-4.39
T5
X6.49Y-4.245
X6.49Y-4.445
X7.7245Y-4.41
X7.9245Y-4.41
T6
X6.6615Y-4.2945
X6.6615Y-4.3929
X6.8265Y-4.2945
X6.8265Y-4.3929
X6.886Y-4.5385
X6.886Y-4.6369
X7.078Y-4.417
X7.078Y-4.517
X7.078Y-4.617
X7.078Y-4.717
X7.378Y-4.417
X7.378Y-4.517
X7.378Y-4.617
X7.378Y-4.717
X7.6075Y-4.5425
X7.6075Y-4.6409
X7.797Y-4.0595
X7.7975Y-4.25
X7.8954Y-4.0595
X7.8959Y-4.25
T7
X6.534Y-4.533
X6.534Y-4.633
X8.027Y-4.354
X8.127Y-4.354
T8
X8.456Y-4.2735
X8.456Y-4.3735
X8.456Y-4.4735
T9
X7.1Y-4.035
X7.1Y-4.2122
X7.3559Y-4.035
X7.3559Y-4.2122
T2
X6.1641Y-4.2222G85X6.1896Y-4.2222
G05
X6.1641Y-4.4978G85X6.1896Y-4.4978
G05
T3
X6.2831Y-4.2557G85X6.2831Y-4.2675
G05
X6.2831Y-4.4525G85X6.2831Y-4.4643
G05
T0
M30
