G04 #@! TF.FileFunction,Other,User*
%FSLAX46Y46*%
G04 Gerber Fmt 4.6, Leading zero omitted, Abs format (unit mm)*
G04 Created by KiCad (PCBNEW 4.0.7) date Thursday, December 14, 2017 'PMt' 09:42:57 PM*
%MOMM*%
%LPD*%
G01*
G04 APERTURE LIST*
%ADD10C,0.100000*%
%ADD11C,0.050000*%
G04 APERTURE END LIST*
D10*
D11*
X170552100Y-108030300D02*
X167852100Y-108030300D01*
X167852100Y-108030300D02*
X167852100Y-112630300D01*
X167852100Y-112630300D02*
X170552100Y-112630300D01*
X170552100Y-112630300D02*
X170552100Y-108030300D01*
X174743100Y-108030300D02*
X172043100Y-108030300D01*
X172043100Y-108030300D02*
X172043100Y-112630300D01*
X172043100Y-112630300D02*
X174743100Y-112630300D01*
X174743100Y-112630300D02*
X174743100Y-108030300D01*
X197006500Y-106600000D02*
X197006500Y-109300000D01*
X197006500Y-109300000D02*
X201606500Y-109300000D01*
X201606500Y-109300000D02*
X201606500Y-106600000D01*
X201606500Y-106600000D02*
X197006500Y-106600000D01*
X196993800Y-101761300D02*
X196993800Y-104461300D01*
X196993800Y-104461300D02*
X201593800Y-104461300D01*
X201593800Y-104461300D02*
X201593800Y-101761300D01*
X201593800Y-101761300D02*
X196993800Y-101761300D01*
X160832000Y-106144000D02*
X160832000Y-115344000D01*
X160832000Y-115344000D02*
X153982000Y-115344000D01*
X153982000Y-115344000D02*
X153982000Y-106144000D01*
X153982000Y-106144000D02*
X160832000Y-106144000D01*
X188090000Y-108489000D02*
X188340000Y-108489000D01*
X188340000Y-108489000D02*
X188340000Y-108239000D01*
X188090000Y-100989000D02*
X188340000Y-100989000D01*
X188340000Y-100989000D02*
X188340000Y-101239000D01*
X178840000Y-101239000D02*
X178840000Y-100989000D01*
X178840000Y-100989000D02*
X179090000Y-100989000D01*
X178840000Y-108239000D02*
X178840000Y-108489000D01*
X178840000Y-108489000D02*
X179090000Y-108489000D01*
X179090000Y-100989000D02*
X188090000Y-100989000D01*
X178840000Y-108239000D02*
X178840000Y-101239000D01*
X188090000Y-108489000D02*
X179090000Y-108489000D01*
X188340000Y-101239000D02*
X188340000Y-108239000D01*
X163716200Y-101765600D02*
X169176200Y-101765600D01*
X163716200Y-101765600D02*
X163716200Y-106505600D01*
X169176200Y-106505600D02*
X169176200Y-101765600D01*
X169176200Y-106505600D02*
X163716200Y-106505600D01*
X178681200Y-110641800D02*
X178681200Y-121341800D01*
X178681200Y-121341800D02*
X188481200Y-121341800D01*
X188481200Y-121341800D02*
X188481200Y-110641800D01*
X188481200Y-110641800D02*
X178681200Y-110641800D01*
X190322700Y-112966000D02*
X190322700Y-107506000D01*
X190322700Y-112966000D02*
X195062700Y-112966000D01*
X195062700Y-107506000D02*
X190322700Y-107506000D01*
X195062700Y-107506000D02*
X195062700Y-112966000D01*
X212982400Y-106746900D02*
X212982400Y-115396900D01*
X212982400Y-115396900D02*
X225332400Y-115396900D01*
X225332400Y-115396900D02*
X225332400Y-106746900D01*
X225332400Y-106746900D02*
X212982400Y-106746900D01*
X177754400Y-113677900D02*
X172054400Y-113677900D01*
X172054400Y-113677900D02*
X172054400Y-119377900D01*
X172054400Y-119377900D02*
X177754400Y-119377900D01*
X177754400Y-119377900D02*
X177754400Y-113677900D01*
X196080500Y-113779500D02*
X190380500Y-113779500D01*
X190380500Y-113779500D02*
X190380500Y-119479500D01*
X190380500Y-119479500D02*
X196080500Y-119479500D01*
X196080500Y-119479500D02*
X196080500Y-113779500D01*
X163713600Y-118828200D02*
X168213600Y-118828200D01*
X168213600Y-118828200D02*
X168213600Y-113978200D01*
X168213600Y-113978200D02*
X163713600Y-113978200D01*
X163713600Y-113978200D02*
X163713600Y-118828200D01*
X207575800Y-112841600D02*
X207575800Y-108341600D01*
X207575800Y-108341600D02*
X202725800Y-108341600D01*
X202725800Y-108341600D02*
X202725800Y-112841600D01*
X202725800Y-112841600D02*
X207575800Y-112841600D01*
X165996000Y-106673000D02*
X163696000Y-106673000D01*
X163696000Y-106673000D02*
X163696000Y-113923000D01*
X163696000Y-113923000D02*
X165996000Y-113923000D01*
X165996000Y-113923000D02*
X165996000Y-106673000D01*
X195052300Y-110864000D02*
X195052300Y-113164000D01*
X195052300Y-113164000D02*
X202302300Y-113164000D01*
X202302300Y-113164000D02*
X202302300Y-110864000D01*
X202302300Y-110864000D02*
X195052300Y-110864000D01*
M02*
