G04 #@! TF.FileFunction,Copper,L2,Bot,Signal*
%FSLAX46Y46*%
G04 Gerber Fmt 4.6, Leading zero omitted, Abs format (unit mm)*
G04 Created by KiCad (PCBNEW 4.0.7) date Thursday, December 14, 2017 'PMt' 09:42:57 PM*
%MOMM*%
%LPD*%
G01*
G04 APERTURE LIST*
%ADD10C,0.100000*%
%ADD11C,1.600000*%
%ADD12O,0.950000X1.250000*%
%ADD13O,1.550000X1.000000*%
%ADD14C,2.000000*%
%ADD15O,0.900000X1.500000*%
%ADD16R,0.900000X1.500000*%
%ADD17R,1.600000X1.600000*%
%ADD18O,1.600000X1.600000*%
%ADD19O,1.500000X0.900000*%
%ADD20R,1.500000X0.900000*%
%ADD21R,1.700000X1.700000*%
%ADD22O,1.700000X1.700000*%
%ADD23R,1.800000X1.800000*%
%ADD24C,1.800000*%
%ADD25C,1.400000*%
%ADD26O,1.400000X1.400000*%
%ADD27C,0.600000*%
%ADD28C,0.250000*%
%ADD29C,0.254000*%
G04 APERTURE END LIST*
D10*
D11*
X169202100Y-109080300D03*
X169202100Y-111580300D03*
X173393100Y-109080300D03*
X173393100Y-111580300D03*
X198056500Y-107950000D03*
X200556500Y-107950000D03*
X198043800Y-103111300D03*
X200543800Y-103111300D03*
D12*
X159592000Y-108244000D03*
X159592000Y-113244000D03*
D13*
X156892000Y-107244000D03*
X156892000Y-114244000D03*
D14*
X180340000Y-106989000D03*
X180340000Y-102489000D03*
X186840000Y-106989000D03*
X186840000Y-102489000D03*
D15*
X166446200Y-104495600D03*
X167716200Y-104495600D03*
D16*
X165176200Y-104495600D03*
D17*
X179781200Y-112191800D03*
D18*
X187401200Y-119811800D03*
X179781200Y-114731800D03*
X187401200Y-117271800D03*
X179781200Y-117271800D03*
X187401200Y-114731800D03*
X179781200Y-119811800D03*
X187401200Y-112191800D03*
D19*
X193052700Y-110236000D03*
X193052700Y-108966000D03*
D20*
X193052700Y-111506000D03*
D21*
X214782400Y-108546900D03*
D22*
X214782400Y-111086900D03*
X214782400Y-113626900D03*
D17*
X174904400Y-115277900D03*
D11*
X174904400Y-117777900D03*
D17*
X193230500Y-115379500D03*
D11*
X193230500Y-117879500D03*
D23*
X165963600Y-117678200D03*
D24*
X165963600Y-115138200D03*
D23*
X206425800Y-110591600D03*
D24*
X203885800Y-110591600D03*
D25*
X164846000Y-107823000D03*
D26*
X164846000Y-112903000D03*
D25*
X196202300Y-112014000D03*
D26*
X201282300Y-112014000D03*
D27*
X161163000Y-112039400D03*
D28*
X193052700Y-108966000D02*
X197040500Y-108966000D01*
X197040500Y-108966000D02*
X198056500Y-107950000D01*
X193230500Y-117879500D02*
X194388100Y-117879500D01*
X196202300Y-116065300D02*
X196202300Y-112014000D01*
X194388100Y-117879500D02*
X196202300Y-116065300D01*
D29*
G36*
X215469000Y-107049460D02*
X213932400Y-107049460D01*
X213697083Y-107093738D01*
X213480959Y-107232810D01*
X213335969Y-107445010D01*
X213284960Y-107696900D01*
X213284960Y-109396900D01*
X213329238Y-109632217D01*
X213468310Y-109848341D01*
X213680510Y-109993331D01*
X213788507Y-110015201D01*
X213510755Y-110319976D01*
X213340924Y-110730010D01*
X213462245Y-110959900D01*
X214655400Y-110959900D01*
X214655400Y-110939900D01*
X214909400Y-110939900D01*
X214909400Y-110959900D01*
X214929400Y-110959900D01*
X214929400Y-111213900D01*
X214909400Y-111213900D01*
X214909400Y-111233900D01*
X214655400Y-111233900D01*
X214655400Y-111213900D01*
X213462245Y-111213900D01*
X213340924Y-111443790D01*
X213510755Y-111853824D01*
X213901042Y-112282083D01*
X214043953Y-112349198D01*
X213703253Y-112576846D01*
X213381346Y-113058615D01*
X213268307Y-113626900D01*
X213381346Y-114195185D01*
X213703253Y-114676954D01*
X214185022Y-114998861D01*
X214753307Y-115111900D01*
X214811493Y-115111900D01*
X215379778Y-114998861D01*
X215469000Y-114939245D01*
X215469000Y-120879400D01*
X188364838Y-120879400D01*
X188444011Y-120826498D01*
X188755080Y-120360951D01*
X188864313Y-119811800D01*
X188755080Y-119262649D01*
X188444011Y-118797102D01*
X188061925Y-118541800D01*
X188444011Y-118286498D01*
X188526070Y-118163687D01*
X191795252Y-118163687D01*
X192013257Y-118691300D01*
X192416577Y-119095324D01*
X192943809Y-119314250D01*
X193514687Y-119314748D01*
X194042300Y-119096743D01*
X194446324Y-118693423D01*
X194475973Y-118622021D01*
X194678939Y-118581648D01*
X194925501Y-118416901D01*
X196739701Y-116602701D01*
X196904448Y-116356140D01*
X196962300Y-116065300D01*
X196962300Y-113141655D01*
X197333398Y-112771204D01*
X197537068Y-112280713D01*
X197537300Y-112014000D01*
X199921146Y-112014000D01*
X200022767Y-112524882D01*
X200312158Y-112957988D01*
X200745264Y-113247379D01*
X201256146Y-113349000D01*
X201308454Y-113349000D01*
X201819336Y-113247379D01*
X202252442Y-112957988D01*
X202541833Y-112524882D01*
X202643454Y-112014000D01*
X202541833Y-111503118D01*
X202252442Y-111070012D01*
X201819336Y-110780621D01*
X201308454Y-110679000D01*
X201256146Y-110679000D01*
X200745264Y-110780621D01*
X200312158Y-111070012D01*
X200022767Y-111503118D01*
X199921146Y-112014000D01*
X197537300Y-112014000D01*
X197537531Y-111749617D01*
X197334718Y-111258771D01*
X196959504Y-110882902D01*
X196469013Y-110679232D01*
X195937917Y-110678769D01*
X195447071Y-110881582D01*
X195071202Y-111256796D01*
X194867532Y-111747287D01*
X194867069Y-112278383D01*
X195069882Y-112769229D01*
X195442300Y-113142297D01*
X195442300Y-115750498D01*
X194286561Y-116906237D01*
X194183817Y-116803313D01*
X194390199Y-116717827D01*
X194568827Y-116539198D01*
X194665500Y-116305809D01*
X194665500Y-115665250D01*
X194506750Y-115506500D01*
X193357500Y-115506500D01*
X193357500Y-115526500D01*
X193103500Y-115526500D01*
X193103500Y-115506500D01*
X191954250Y-115506500D01*
X191795500Y-115665250D01*
X191795500Y-116305809D01*
X191892173Y-116539198D01*
X192070801Y-116717827D01*
X192277335Y-116803376D01*
X192014676Y-117065577D01*
X191795750Y-117592809D01*
X191795252Y-118163687D01*
X188526070Y-118163687D01*
X188755080Y-117820951D01*
X188864313Y-117271800D01*
X188755080Y-116722649D01*
X188444011Y-116257102D01*
X188061925Y-116001800D01*
X188444011Y-115746498D01*
X188755080Y-115280951D01*
X188864313Y-114731800D01*
X188808895Y-114453191D01*
X191795500Y-114453191D01*
X191795500Y-115093750D01*
X191954250Y-115252500D01*
X193103500Y-115252500D01*
X193103500Y-114103250D01*
X193357500Y-114103250D01*
X193357500Y-115252500D01*
X194506750Y-115252500D01*
X194665500Y-115093750D01*
X194665500Y-114453191D01*
X194568827Y-114219802D01*
X194390199Y-114041173D01*
X194156810Y-113944500D01*
X193516250Y-113944500D01*
X193357500Y-114103250D01*
X193103500Y-114103250D01*
X192944750Y-113944500D01*
X192304190Y-113944500D01*
X192070801Y-114041173D01*
X191892173Y-114219802D01*
X191795500Y-114453191D01*
X188808895Y-114453191D01*
X188755080Y-114182649D01*
X188444011Y-113717102D01*
X188061925Y-113461800D01*
X188444011Y-113206498D01*
X188755080Y-112740951D01*
X188864313Y-112191800D01*
X188784739Y-111791750D01*
X191667700Y-111791750D01*
X191667700Y-112082309D01*
X191764373Y-112315698D01*
X191943001Y-112494327D01*
X192176390Y-112591000D01*
X192766950Y-112591000D01*
X192925700Y-112432250D01*
X192925700Y-111633000D01*
X193179700Y-111633000D01*
X193179700Y-112432250D01*
X193338450Y-112591000D01*
X193929010Y-112591000D01*
X194162399Y-112494327D01*
X194341027Y-112315698D01*
X194437700Y-112082309D01*
X194437700Y-111791750D01*
X194278950Y-111633000D01*
X193179700Y-111633000D01*
X192925700Y-111633000D01*
X191826450Y-111633000D01*
X191667700Y-111791750D01*
X188784739Y-111791750D01*
X188755080Y-111642649D01*
X188444011Y-111177102D01*
X187978464Y-110866033D01*
X187429313Y-110756800D01*
X187373087Y-110756800D01*
X186823936Y-110866033D01*
X186358389Y-111177102D01*
X186047320Y-111642649D01*
X185938087Y-112191800D01*
X186047320Y-112740951D01*
X186358389Y-113206498D01*
X186740475Y-113461800D01*
X186358389Y-113717102D01*
X186047320Y-114182649D01*
X185938087Y-114731800D01*
X186047320Y-115280951D01*
X186358389Y-115746498D01*
X186740475Y-116001800D01*
X186358389Y-116257102D01*
X186047320Y-116722649D01*
X185938087Y-117271800D01*
X186047320Y-117820951D01*
X186358389Y-118286498D01*
X186740475Y-118541800D01*
X186358389Y-118797102D01*
X186047320Y-119262649D01*
X185938087Y-119811800D01*
X186047320Y-120360951D01*
X186358389Y-120826498D01*
X186437562Y-120879400D01*
X180744838Y-120879400D01*
X180824011Y-120826498D01*
X181135080Y-120360951D01*
X181244313Y-119811800D01*
X181135080Y-119262649D01*
X180824011Y-118797102D01*
X180419497Y-118526814D01*
X180636334Y-118424189D01*
X181012241Y-118009223D01*
X181173104Y-117620839D01*
X181051115Y-117398800D01*
X179908200Y-117398800D01*
X179908200Y-117418800D01*
X179654200Y-117418800D01*
X179654200Y-117398800D01*
X178511285Y-117398800D01*
X178389296Y-117620839D01*
X178550159Y-118009223D01*
X178926066Y-118424189D01*
X179142903Y-118526814D01*
X178738389Y-118797102D01*
X178427320Y-119262649D01*
X178318087Y-119811800D01*
X178427320Y-120360951D01*
X178738389Y-120826498D01*
X178817562Y-120879400D01*
X156133000Y-120879400D01*
X156133000Y-117963950D01*
X164428600Y-117963950D01*
X164428600Y-118704509D01*
X164525273Y-118937898D01*
X164703901Y-119116527D01*
X164937290Y-119213200D01*
X165677850Y-119213200D01*
X165836600Y-119054450D01*
X165836600Y-117805200D01*
X166090600Y-117805200D01*
X166090600Y-119054450D01*
X166249350Y-119213200D01*
X166989910Y-119213200D01*
X167223299Y-119116527D01*
X167401927Y-118937898D01*
X167498600Y-118704509D01*
X167498600Y-117963950D01*
X167339850Y-117805200D01*
X166090600Y-117805200D01*
X165836600Y-117805200D01*
X164587350Y-117805200D01*
X164428600Y-117963950D01*
X156133000Y-117963950D01*
X156133000Y-115277883D01*
X156155030Y-115292603D01*
X156589376Y-115379000D01*
X157194624Y-115379000D01*
X157628970Y-115292603D01*
X157997190Y-115046566D01*
X158243227Y-114678346D01*
X158329624Y-114244000D01*
X158243227Y-113809654D01*
X157997190Y-113441434D01*
X157628970Y-113195397D01*
X157194624Y-113109000D01*
X156589376Y-113109000D01*
X156155030Y-113195397D01*
X156133000Y-113210117D01*
X156133000Y-113069315D01*
X158482000Y-113069315D01*
X158482000Y-113418685D01*
X158566494Y-113843464D01*
X158807111Y-114203574D01*
X159167221Y-114444191D01*
X159592000Y-114528685D01*
X160016779Y-114444191D01*
X160376889Y-114203574D01*
X160617506Y-113843464D01*
X160702000Y-113418685D01*
X160702000Y-113069315D01*
X160663716Y-112876846D01*
X163511000Y-112876846D01*
X163511000Y-112929154D01*
X163612621Y-113440036D01*
X163902012Y-113873142D01*
X164335118Y-114162533D01*
X164696289Y-114234375D01*
X164663049Y-114267557D01*
X164428867Y-114831530D01*
X164428335Y-115442191D01*
X164661532Y-116006571D01*
X164838692Y-116184041D01*
X164703901Y-116239873D01*
X164525273Y-116418502D01*
X164428600Y-116651891D01*
X164428600Y-117392450D01*
X164587350Y-117551200D01*
X165836600Y-117551200D01*
X165836600Y-117531200D01*
X166090600Y-117531200D01*
X166090600Y-117551200D01*
X167339850Y-117551200D01*
X167498600Y-117392450D01*
X167498600Y-116651891D01*
X167401927Y-116418502D01*
X167223299Y-116239873D01*
X167088606Y-116184081D01*
X167264151Y-116008843D01*
X167498333Y-115444870D01*
X167498865Y-114834209D01*
X167351642Y-114477900D01*
X173456960Y-114477900D01*
X173456960Y-116077900D01*
X173501238Y-116313217D01*
X173640310Y-116529341D01*
X173852510Y-116674331D01*
X173957441Y-116695580D01*
X173688576Y-116963977D01*
X173469650Y-117491209D01*
X173469152Y-118062087D01*
X173687157Y-118589700D01*
X174090477Y-118993724D01*
X174617709Y-119212650D01*
X175188587Y-119213148D01*
X175716200Y-118995143D01*
X176120224Y-118591823D01*
X176339150Y-118064591D01*
X176339648Y-117493713D01*
X176121643Y-116966100D01*
X175853328Y-116697317D01*
X175939717Y-116681062D01*
X176155841Y-116541990D01*
X176300831Y-116329790D01*
X176351840Y-116077900D01*
X176351840Y-114731800D01*
X178318087Y-114731800D01*
X178427320Y-115280951D01*
X178738389Y-115746498D01*
X179142903Y-116016786D01*
X178926066Y-116119411D01*
X178550159Y-116534377D01*
X178389296Y-116922761D01*
X178511285Y-117144800D01*
X179654200Y-117144800D01*
X179654200Y-117124800D01*
X179908200Y-117124800D01*
X179908200Y-117144800D01*
X181051115Y-117144800D01*
X181173104Y-116922761D01*
X181012241Y-116534377D01*
X180636334Y-116119411D01*
X180419497Y-116016786D01*
X180824011Y-115746498D01*
X181135080Y-115280951D01*
X181244313Y-114731800D01*
X181135080Y-114182649D01*
X180824011Y-113717102D01*
X180679735Y-113620699D01*
X180816517Y-113594962D01*
X181032641Y-113455890D01*
X181177631Y-113243690D01*
X181228640Y-112991800D01*
X181228640Y-111391800D01*
X181184362Y-111156483D01*
X181045290Y-110940359D01*
X180833090Y-110795369D01*
X180581200Y-110744360D01*
X178981200Y-110744360D01*
X178745883Y-110788638D01*
X178529759Y-110927710D01*
X178384769Y-111139910D01*
X178333760Y-111391800D01*
X178333760Y-112991800D01*
X178378038Y-113227117D01*
X178517110Y-113443241D01*
X178729310Y-113588231D01*
X178884289Y-113619615D01*
X178738389Y-113717102D01*
X178427320Y-114182649D01*
X178318087Y-114731800D01*
X176351840Y-114731800D01*
X176351840Y-114477900D01*
X176307562Y-114242583D01*
X176168490Y-114026459D01*
X175956290Y-113881469D01*
X175704400Y-113830460D01*
X174104400Y-113830460D01*
X173869083Y-113874738D01*
X173652959Y-114013810D01*
X173507969Y-114226010D01*
X173456960Y-114477900D01*
X167351642Y-114477900D01*
X167265668Y-114269829D01*
X166834243Y-113837649D01*
X166270270Y-113603467D01*
X165970353Y-113603206D01*
X166079379Y-113440036D01*
X166181000Y-112929154D01*
X166181000Y-112876846D01*
X166123554Y-112588045D01*
X168373961Y-112588045D01*
X168448095Y-112834164D01*
X168985323Y-113027265D01*
X169555554Y-113000078D01*
X169956105Y-112834164D01*
X170030239Y-112588045D01*
X172564961Y-112588045D01*
X172639095Y-112834164D01*
X173176323Y-113027265D01*
X173746554Y-113000078D01*
X174147105Y-112834164D01*
X174221239Y-112588045D01*
X173393100Y-111759905D01*
X172564961Y-112588045D01*
X170030239Y-112588045D01*
X169202100Y-111759905D01*
X168373961Y-112588045D01*
X166123554Y-112588045D01*
X166079379Y-112365964D01*
X165789988Y-111932858D01*
X165356882Y-111643467D01*
X164846000Y-111541846D01*
X164335118Y-111643467D01*
X163902012Y-111932858D01*
X163612621Y-112365964D01*
X163511000Y-112876846D01*
X160663716Y-112876846D01*
X160617506Y-112644536D01*
X160376889Y-112284426D01*
X160016779Y-112043809D01*
X159592000Y-111959315D01*
X159167221Y-112043809D01*
X158807111Y-112284426D01*
X158566494Y-112644536D01*
X158482000Y-113069315D01*
X156133000Y-113069315D01*
X156133000Y-111363523D01*
X167755135Y-111363523D01*
X167782322Y-111933754D01*
X167948236Y-112334305D01*
X168194355Y-112408439D01*
X169022495Y-111580300D01*
X169381705Y-111580300D01*
X170209845Y-112408439D01*
X170455964Y-112334305D01*
X170649065Y-111797077D01*
X170628395Y-111363523D01*
X171946135Y-111363523D01*
X171973322Y-111933754D01*
X172139236Y-112334305D01*
X172385355Y-112408439D01*
X173213495Y-111580300D01*
X173572705Y-111580300D01*
X174400845Y-112408439D01*
X174646964Y-112334305D01*
X174840065Y-111797077D01*
X174812878Y-111226846D01*
X174646964Y-110826295D01*
X174400845Y-110752161D01*
X173572705Y-111580300D01*
X173213495Y-111580300D01*
X172385355Y-110752161D01*
X172139236Y-110826295D01*
X171946135Y-111363523D01*
X170628395Y-111363523D01*
X170621878Y-111226846D01*
X170455964Y-110826295D01*
X170209845Y-110752161D01*
X169381705Y-111580300D01*
X169022495Y-111580300D01*
X168194355Y-110752161D01*
X167948236Y-110826295D01*
X167755135Y-111363523D01*
X156133000Y-111363523D01*
X156133000Y-108277883D01*
X156155030Y-108292603D01*
X156589376Y-108379000D01*
X157194624Y-108379000D01*
X157628970Y-108292603D01*
X157963143Y-108069315D01*
X158482000Y-108069315D01*
X158482000Y-108418685D01*
X158566494Y-108843464D01*
X158807111Y-109203574D01*
X159167221Y-109444191D01*
X159592000Y-109528685D01*
X160016779Y-109444191D01*
X160136064Y-109364487D01*
X167766852Y-109364487D01*
X167984857Y-109892100D01*
X168388177Y-110296124D01*
X168454644Y-110323723D01*
X168448095Y-110326436D01*
X168373961Y-110572555D01*
X169202100Y-111400695D01*
X170030239Y-110572555D01*
X169956105Y-110326436D01*
X169949617Y-110324104D01*
X170013900Y-110297543D01*
X170417924Y-109894223D01*
X170636850Y-109366991D01*
X170636852Y-109364487D01*
X171957852Y-109364487D01*
X172175857Y-109892100D01*
X172579177Y-110296124D01*
X172645644Y-110323723D01*
X172639095Y-110326436D01*
X172564961Y-110572555D01*
X173393100Y-111400695D01*
X174221239Y-110572555D01*
X174147105Y-110326436D01*
X174140617Y-110324104D01*
X174204900Y-110297543D01*
X174608924Y-109894223D01*
X174827850Y-109366991D01*
X174828199Y-108966000D01*
X191640566Y-108966000D01*
X191723157Y-109381212D01*
X191870015Y-109601000D01*
X191723157Y-109820788D01*
X191640566Y-110236000D01*
X191723157Y-110651212D01*
X191760130Y-110706546D01*
X191667700Y-110929691D01*
X191667700Y-111220250D01*
X191826450Y-111379000D01*
X192925700Y-111379000D01*
X192925700Y-111359000D01*
X193179700Y-111359000D01*
X193179700Y-111379000D01*
X194278950Y-111379000D01*
X194437700Y-111220250D01*
X194437700Y-110929691D01*
X194345270Y-110706546D01*
X194382243Y-110651212D01*
X194441971Y-110350936D01*
X202339342Y-110350936D01*
X202364961Y-110961060D01*
X202549157Y-111405748D01*
X202805641Y-111492154D01*
X203706195Y-110591600D01*
X202805641Y-109691046D01*
X202549157Y-109777452D01*
X202339342Y-110350936D01*
X194441971Y-110350936D01*
X194464834Y-110236000D01*
X194382243Y-109820788D01*
X194318908Y-109726000D01*
X197040500Y-109726000D01*
X197331339Y-109668148D01*
X197565868Y-109511441D01*
X202985246Y-109511441D01*
X203885800Y-110411995D01*
X203899943Y-110397853D01*
X204079548Y-110577458D01*
X204065405Y-110591600D01*
X204079548Y-110605743D01*
X203899943Y-110785348D01*
X203885800Y-110771205D01*
X202985246Y-111671759D01*
X203071652Y-111928243D01*
X203645136Y-112138058D01*
X204255260Y-112112439D01*
X204699948Y-111928243D01*
X204786353Y-111671761D01*
X204900910Y-111786318D01*
X204937388Y-111749840D01*
X205061710Y-111943041D01*
X205273910Y-112088031D01*
X205525800Y-112139040D01*
X207325800Y-112139040D01*
X207561117Y-112094762D01*
X207777241Y-111955690D01*
X207922231Y-111743490D01*
X207973240Y-111491600D01*
X207973240Y-109691600D01*
X207928962Y-109456283D01*
X207789890Y-109240159D01*
X207577690Y-109095169D01*
X207325800Y-109044160D01*
X205525800Y-109044160D01*
X205290483Y-109088438D01*
X205074359Y-109227510D01*
X204935202Y-109431174D01*
X204900910Y-109396882D01*
X204786353Y-109511439D01*
X204699948Y-109254957D01*
X204126464Y-109045142D01*
X203516340Y-109070761D01*
X203071652Y-109254957D01*
X202985246Y-109511441D01*
X197565868Y-109511441D01*
X197577901Y-109503401D01*
X197718046Y-109363256D01*
X197769809Y-109384750D01*
X198340687Y-109385248D01*
X198868300Y-109167243D01*
X199078163Y-108957745D01*
X199728361Y-108957745D01*
X199802495Y-109203864D01*
X200339723Y-109396965D01*
X200909954Y-109369778D01*
X201310505Y-109203864D01*
X201384639Y-108957745D01*
X200556500Y-108129605D01*
X199728361Y-108957745D01*
X199078163Y-108957745D01*
X199272324Y-108763923D01*
X199299923Y-108697456D01*
X199302636Y-108704005D01*
X199548755Y-108778139D01*
X200376895Y-107950000D01*
X200736105Y-107950000D01*
X201564245Y-108778139D01*
X201810364Y-108704005D01*
X202003465Y-108166777D01*
X201976278Y-107596546D01*
X201810364Y-107195995D01*
X201564245Y-107121861D01*
X200736105Y-107950000D01*
X200376895Y-107950000D01*
X199548755Y-107121861D01*
X199302636Y-107195995D01*
X199300304Y-107202483D01*
X199273743Y-107138200D01*
X199078140Y-106942255D01*
X199728361Y-106942255D01*
X200556500Y-107770395D01*
X201384639Y-106942255D01*
X201310505Y-106696136D01*
X200773277Y-106503035D01*
X200203046Y-106530222D01*
X199802495Y-106696136D01*
X199728361Y-106942255D01*
X199078140Y-106942255D01*
X198870423Y-106734176D01*
X198343191Y-106515250D01*
X197772313Y-106514752D01*
X197244700Y-106732757D01*
X196840676Y-107136077D01*
X196621750Y-107663309D01*
X196621277Y-108206000D01*
X194151863Y-108206000D01*
X194147045Y-108198789D01*
X193795046Y-107963591D01*
X193379834Y-107881000D01*
X192725566Y-107881000D01*
X192310354Y-107963591D01*
X191958355Y-108198789D01*
X191723157Y-108550788D01*
X191640566Y-108966000D01*
X174828199Y-108966000D01*
X174828348Y-108796113D01*
X174610343Y-108268500D01*
X174207023Y-107864476D01*
X173679791Y-107645550D01*
X173108913Y-107645052D01*
X172581300Y-107863057D01*
X172177276Y-108266377D01*
X171958350Y-108793609D01*
X171957852Y-109364487D01*
X170636852Y-109364487D01*
X170637348Y-108796113D01*
X170419343Y-108268500D01*
X170016023Y-107864476D01*
X169488791Y-107645550D01*
X168917913Y-107645052D01*
X168390300Y-107863057D01*
X167986276Y-108266377D01*
X167767350Y-108793609D01*
X167766852Y-109364487D01*
X160136064Y-109364487D01*
X160376889Y-109203574D01*
X160617506Y-108843464D01*
X160702000Y-108418685D01*
X160702000Y-108087383D01*
X163510769Y-108087383D01*
X163713582Y-108578229D01*
X164088796Y-108954098D01*
X164579287Y-109157768D01*
X165110383Y-109158231D01*
X165601229Y-108955418D01*
X165977098Y-108580204D01*
X166180768Y-108089713D01*
X166181231Y-107558617D01*
X166079660Y-107312795D01*
X178704716Y-107312795D01*
X178953106Y-107913943D01*
X179412637Y-108374278D01*
X180013352Y-108623716D01*
X180663795Y-108624284D01*
X181264943Y-108375894D01*
X181725278Y-107916363D01*
X181974716Y-107315648D01*
X181974718Y-107312795D01*
X185204716Y-107312795D01*
X185453106Y-107913943D01*
X185912637Y-108374278D01*
X186513352Y-108623716D01*
X187163795Y-108624284D01*
X187764943Y-108375894D01*
X188225278Y-107916363D01*
X188474716Y-107315648D01*
X188475284Y-106665205D01*
X188226894Y-106064057D01*
X187767363Y-105603722D01*
X187166648Y-105354284D01*
X186516205Y-105353716D01*
X185915057Y-105602106D01*
X185454722Y-106061637D01*
X185205284Y-106662352D01*
X185204716Y-107312795D01*
X181974718Y-107312795D01*
X181975284Y-106665205D01*
X181726894Y-106064057D01*
X181267363Y-105603722D01*
X180666648Y-105354284D01*
X180016205Y-105353716D01*
X179415057Y-105602106D01*
X178954722Y-106061637D01*
X178705284Y-106662352D01*
X178704716Y-107312795D01*
X166079660Y-107312795D01*
X165978418Y-107067771D01*
X165603204Y-106691902D01*
X165112713Y-106488232D01*
X164581617Y-106487769D01*
X164090771Y-106690582D01*
X163714902Y-107065796D01*
X163511232Y-107556287D01*
X163510769Y-108087383D01*
X160702000Y-108087383D01*
X160702000Y-108069315D01*
X160617506Y-107644536D01*
X160376889Y-107284426D01*
X160016779Y-107043809D01*
X159592000Y-106959315D01*
X159167221Y-107043809D01*
X158807111Y-107284426D01*
X158566494Y-107644536D01*
X158482000Y-108069315D01*
X157963143Y-108069315D01*
X157997190Y-108046566D01*
X158243227Y-107678346D01*
X158329624Y-107244000D01*
X158243227Y-106809654D01*
X157997190Y-106441434D01*
X157628970Y-106195397D01*
X157194624Y-106109000D01*
X156589376Y-106109000D01*
X156155030Y-106195397D01*
X156133000Y-106210117D01*
X156133000Y-103745600D01*
X164078760Y-103745600D01*
X164078760Y-105245600D01*
X164123038Y-105480917D01*
X164262110Y-105697041D01*
X164474310Y-105842031D01*
X164726200Y-105893040D01*
X165626200Y-105893040D01*
X165861517Y-105848762D01*
X165994729Y-105763042D01*
X166152199Y-105840008D01*
X166319200Y-105713102D01*
X166319200Y-104622600D01*
X166299200Y-104622600D01*
X166299200Y-104368600D01*
X166319200Y-104368600D01*
X166319200Y-103278098D01*
X166573200Y-103278098D01*
X166573200Y-104368600D01*
X166593200Y-104368600D01*
X166593200Y-104622600D01*
X166573200Y-104622600D01*
X166573200Y-105713102D01*
X166740201Y-105840008D01*
X167076926Y-105675430D01*
X167300988Y-105825143D01*
X167716200Y-105907734D01*
X168131412Y-105825143D01*
X168483411Y-105589945D01*
X168718609Y-105237946D01*
X168801200Y-104822734D01*
X168801200Y-104168466D01*
X168718609Y-103753254D01*
X168483411Y-103401255D01*
X168131412Y-103166057D01*
X167716200Y-103083466D01*
X167300988Y-103166057D01*
X167076926Y-103315770D01*
X166740201Y-103151192D01*
X166573200Y-103278098D01*
X166319200Y-103278098D01*
X166152199Y-103151192D01*
X165994125Y-103228453D01*
X165878090Y-103149169D01*
X165626200Y-103098160D01*
X164726200Y-103098160D01*
X164490883Y-103142438D01*
X164274759Y-103281510D01*
X164129769Y-103493710D01*
X164078760Y-103745600D01*
X156133000Y-103745600D01*
X156133000Y-102812795D01*
X178704716Y-102812795D01*
X178953106Y-103413943D01*
X179412637Y-103874278D01*
X180013352Y-104123716D01*
X180663795Y-104124284D01*
X181264943Y-103875894D01*
X181725278Y-103416363D01*
X181974716Y-102815648D01*
X181974718Y-102812795D01*
X185204716Y-102812795D01*
X185453106Y-103413943D01*
X185912637Y-103874278D01*
X186513352Y-104123716D01*
X187163795Y-104124284D01*
X187764943Y-103875894D01*
X188225278Y-103416363D01*
X188233946Y-103395487D01*
X196608552Y-103395487D01*
X196826557Y-103923100D01*
X197229877Y-104327124D01*
X197757109Y-104546050D01*
X198327987Y-104546548D01*
X198855600Y-104328543D01*
X199065463Y-104119045D01*
X199715661Y-104119045D01*
X199789795Y-104365164D01*
X200327023Y-104558265D01*
X200897254Y-104531078D01*
X201297805Y-104365164D01*
X201371939Y-104119045D01*
X200543800Y-103290905D01*
X199715661Y-104119045D01*
X199065463Y-104119045D01*
X199259624Y-103925223D01*
X199287223Y-103858756D01*
X199289936Y-103865305D01*
X199536055Y-103939439D01*
X200364195Y-103111300D01*
X200723405Y-103111300D01*
X201551545Y-103939439D01*
X201797664Y-103865305D01*
X201990765Y-103328077D01*
X201963578Y-102757846D01*
X201797664Y-102357295D01*
X201551545Y-102283161D01*
X200723405Y-103111300D01*
X200364195Y-103111300D01*
X199536055Y-102283161D01*
X199289936Y-102357295D01*
X199287604Y-102363783D01*
X199261043Y-102299500D01*
X199065440Y-102103555D01*
X199715661Y-102103555D01*
X200543800Y-102931695D01*
X201371939Y-102103555D01*
X201297805Y-101857436D01*
X200760577Y-101664335D01*
X200190346Y-101691522D01*
X199789795Y-101857436D01*
X199715661Y-102103555D01*
X199065440Y-102103555D01*
X198857723Y-101895476D01*
X198330491Y-101676550D01*
X197759613Y-101676052D01*
X197232000Y-101894057D01*
X196827976Y-102297377D01*
X196609050Y-102824609D01*
X196608552Y-103395487D01*
X188233946Y-103395487D01*
X188474716Y-102815648D01*
X188475284Y-102165205D01*
X188226894Y-101564057D01*
X187767363Y-101103722D01*
X187166648Y-100854284D01*
X186516205Y-100853716D01*
X185915057Y-101102106D01*
X185454722Y-101561637D01*
X185205284Y-102162352D01*
X185204716Y-102812795D01*
X181974718Y-102812795D01*
X181975284Y-102165205D01*
X181726894Y-101564057D01*
X181267363Y-101103722D01*
X180666648Y-100854284D01*
X180016205Y-100853716D01*
X179415057Y-101102106D01*
X178954722Y-101561637D01*
X178705284Y-102162352D01*
X178704716Y-102812795D01*
X156133000Y-102812795D01*
X156133000Y-100735600D01*
X215469000Y-100735600D01*
X215469000Y-107049460D01*
X215469000Y-107049460D01*
G37*
X215469000Y-107049460D02*
X213932400Y-107049460D01*
X213697083Y-107093738D01*
X213480959Y-107232810D01*
X213335969Y-107445010D01*
X213284960Y-107696900D01*
X213284960Y-109396900D01*
X213329238Y-109632217D01*
X213468310Y-109848341D01*
X213680510Y-109993331D01*
X213788507Y-110015201D01*
X213510755Y-110319976D01*
X213340924Y-110730010D01*
X213462245Y-110959900D01*
X214655400Y-110959900D01*
X214655400Y-110939900D01*
X214909400Y-110939900D01*
X214909400Y-110959900D01*
X214929400Y-110959900D01*
X214929400Y-111213900D01*
X214909400Y-111213900D01*
X214909400Y-111233900D01*
X214655400Y-111233900D01*
X214655400Y-111213900D01*
X213462245Y-111213900D01*
X213340924Y-111443790D01*
X213510755Y-111853824D01*
X213901042Y-112282083D01*
X214043953Y-112349198D01*
X213703253Y-112576846D01*
X213381346Y-113058615D01*
X213268307Y-113626900D01*
X213381346Y-114195185D01*
X213703253Y-114676954D01*
X214185022Y-114998861D01*
X214753307Y-115111900D01*
X214811493Y-115111900D01*
X215379778Y-114998861D01*
X215469000Y-114939245D01*
X215469000Y-120879400D01*
X188364838Y-120879400D01*
X188444011Y-120826498D01*
X188755080Y-120360951D01*
X188864313Y-119811800D01*
X188755080Y-119262649D01*
X188444011Y-118797102D01*
X188061925Y-118541800D01*
X188444011Y-118286498D01*
X188526070Y-118163687D01*
X191795252Y-118163687D01*
X192013257Y-118691300D01*
X192416577Y-119095324D01*
X192943809Y-119314250D01*
X193514687Y-119314748D01*
X194042300Y-119096743D01*
X194446324Y-118693423D01*
X194475973Y-118622021D01*
X194678939Y-118581648D01*
X194925501Y-118416901D01*
X196739701Y-116602701D01*
X196904448Y-116356140D01*
X196962300Y-116065300D01*
X196962300Y-113141655D01*
X197333398Y-112771204D01*
X197537068Y-112280713D01*
X197537300Y-112014000D01*
X199921146Y-112014000D01*
X200022767Y-112524882D01*
X200312158Y-112957988D01*
X200745264Y-113247379D01*
X201256146Y-113349000D01*
X201308454Y-113349000D01*
X201819336Y-113247379D01*
X202252442Y-112957988D01*
X202541833Y-112524882D01*
X202643454Y-112014000D01*
X202541833Y-111503118D01*
X202252442Y-111070012D01*
X201819336Y-110780621D01*
X201308454Y-110679000D01*
X201256146Y-110679000D01*
X200745264Y-110780621D01*
X200312158Y-111070012D01*
X200022767Y-111503118D01*
X199921146Y-112014000D01*
X197537300Y-112014000D01*
X197537531Y-111749617D01*
X197334718Y-111258771D01*
X196959504Y-110882902D01*
X196469013Y-110679232D01*
X195937917Y-110678769D01*
X195447071Y-110881582D01*
X195071202Y-111256796D01*
X194867532Y-111747287D01*
X194867069Y-112278383D01*
X195069882Y-112769229D01*
X195442300Y-113142297D01*
X195442300Y-115750498D01*
X194286561Y-116906237D01*
X194183817Y-116803313D01*
X194390199Y-116717827D01*
X194568827Y-116539198D01*
X194665500Y-116305809D01*
X194665500Y-115665250D01*
X194506750Y-115506500D01*
X193357500Y-115506500D01*
X193357500Y-115526500D01*
X193103500Y-115526500D01*
X193103500Y-115506500D01*
X191954250Y-115506500D01*
X191795500Y-115665250D01*
X191795500Y-116305809D01*
X191892173Y-116539198D01*
X192070801Y-116717827D01*
X192277335Y-116803376D01*
X192014676Y-117065577D01*
X191795750Y-117592809D01*
X191795252Y-118163687D01*
X188526070Y-118163687D01*
X188755080Y-117820951D01*
X188864313Y-117271800D01*
X188755080Y-116722649D01*
X188444011Y-116257102D01*
X188061925Y-116001800D01*
X188444011Y-115746498D01*
X188755080Y-115280951D01*
X188864313Y-114731800D01*
X188808895Y-114453191D01*
X191795500Y-114453191D01*
X191795500Y-115093750D01*
X191954250Y-115252500D01*
X193103500Y-115252500D01*
X193103500Y-114103250D01*
X193357500Y-114103250D01*
X193357500Y-115252500D01*
X194506750Y-115252500D01*
X194665500Y-115093750D01*
X194665500Y-114453191D01*
X194568827Y-114219802D01*
X194390199Y-114041173D01*
X194156810Y-113944500D01*
X193516250Y-113944500D01*
X193357500Y-114103250D01*
X193103500Y-114103250D01*
X192944750Y-113944500D01*
X192304190Y-113944500D01*
X192070801Y-114041173D01*
X191892173Y-114219802D01*
X191795500Y-114453191D01*
X188808895Y-114453191D01*
X188755080Y-114182649D01*
X188444011Y-113717102D01*
X188061925Y-113461800D01*
X188444011Y-113206498D01*
X188755080Y-112740951D01*
X188864313Y-112191800D01*
X188784739Y-111791750D01*
X191667700Y-111791750D01*
X191667700Y-112082309D01*
X191764373Y-112315698D01*
X191943001Y-112494327D01*
X192176390Y-112591000D01*
X192766950Y-112591000D01*
X192925700Y-112432250D01*
X192925700Y-111633000D01*
X193179700Y-111633000D01*
X193179700Y-112432250D01*
X193338450Y-112591000D01*
X193929010Y-112591000D01*
X194162399Y-112494327D01*
X194341027Y-112315698D01*
X194437700Y-112082309D01*
X194437700Y-111791750D01*
X194278950Y-111633000D01*
X193179700Y-111633000D01*
X192925700Y-111633000D01*
X191826450Y-111633000D01*
X191667700Y-111791750D01*
X188784739Y-111791750D01*
X188755080Y-111642649D01*
X188444011Y-111177102D01*
X187978464Y-110866033D01*
X187429313Y-110756800D01*
X187373087Y-110756800D01*
X186823936Y-110866033D01*
X186358389Y-111177102D01*
X186047320Y-111642649D01*
X185938087Y-112191800D01*
X186047320Y-112740951D01*
X186358389Y-113206498D01*
X186740475Y-113461800D01*
X186358389Y-113717102D01*
X186047320Y-114182649D01*
X185938087Y-114731800D01*
X186047320Y-115280951D01*
X186358389Y-115746498D01*
X186740475Y-116001800D01*
X186358389Y-116257102D01*
X186047320Y-116722649D01*
X185938087Y-117271800D01*
X186047320Y-117820951D01*
X186358389Y-118286498D01*
X186740475Y-118541800D01*
X186358389Y-118797102D01*
X186047320Y-119262649D01*
X185938087Y-119811800D01*
X186047320Y-120360951D01*
X186358389Y-120826498D01*
X186437562Y-120879400D01*
X180744838Y-120879400D01*
X180824011Y-120826498D01*
X181135080Y-120360951D01*
X181244313Y-119811800D01*
X181135080Y-119262649D01*
X180824011Y-118797102D01*
X180419497Y-118526814D01*
X180636334Y-118424189D01*
X181012241Y-118009223D01*
X181173104Y-117620839D01*
X181051115Y-117398800D01*
X179908200Y-117398800D01*
X179908200Y-117418800D01*
X179654200Y-117418800D01*
X179654200Y-117398800D01*
X178511285Y-117398800D01*
X178389296Y-117620839D01*
X178550159Y-118009223D01*
X178926066Y-118424189D01*
X179142903Y-118526814D01*
X178738389Y-118797102D01*
X178427320Y-119262649D01*
X178318087Y-119811800D01*
X178427320Y-120360951D01*
X178738389Y-120826498D01*
X178817562Y-120879400D01*
X156133000Y-120879400D01*
X156133000Y-117963950D01*
X164428600Y-117963950D01*
X164428600Y-118704509D01*
X164525273Y-118937898D01*
X164703901Y-119116527D01*
X164937290Y-119213200D01*
X165677850Y-119213200D01*
X165836600Y-119054450D01*
X165836600Y-117805200D01*
X166090600Y-117805200D01*
X166090600Y-119054450D01*
X166249350Y-119213200D01*
X166989910Y-119213200D01*
X167223299Y-119116527D01*
X167401927Y-118937898D01*
X167498600Y-118704509D01*
X167498600Y-117963950D01*
X167339850Y-117805200D01*
X166090600Y-117805200D01*
X165836600Y-117805200D01*
X164587350Y-117805200D01*
X164428600Y-117963950D01*
X156133000Y-117963950D01*
X156133000Y-115277883D01*
X156155030Y-115292603D01*
X156589376Y-115379000D01*
X157194624Y-115379000D01*
X157628970Y-115292603D01*
X157997190Y-115046566D01*
X158243227Y-114678346D01*
X158329624Y-114244000D01*
X158243227Y-113809654D01*
X157997190Y-113441434D01*
X157628970Y-113195397D01*
X157194624Y-113109000D01*
X156589376Y-113109000D01*
X156155030Y-113195397D01*
X156133000Y-113210117D01*
X156133000Y-113069315D01*
X158482000Y-113069315D01*
X158482000Y-113418685D01*
X158566494Y-113843464D01*
X158807111Y-114203574D01*
X159167221Y-114444191D01*
X159592000Y-114528685D01*
X160016779Y-114444191D01*
X160376889Y-114203574D01*
X160617506Y-113843464D01*
X160702000Y-113418685D01*
X160702000Y-113069315D01*
X160663716Y-112876846D01*
X163511000Y-112876846D01*
X163511000Y-112929154D01*
X163612621Y-113440036D01*
X163902012Y-113873142D01*
X164335118Y-114162533D01*
X164696289Y-114234375D01*
X164663049Y-114267557D01*
X164428867Y-114831530D01*
X164428335Y-115442191D01*
X164661532Y-116006571D01*
X164838692Y-116184041D01*
X164703901Y-116239873D01*
X164525273Y-116418502D01*
X164428600Y-116651891D01*
X164428600Y-117392450D01*
X164587350Y-117551200D01*
X165836600Y-117551200D01*
X165836600Y-117531200D01*
X166090600Y-117531200D01*
X166090600Y-117551200D01*
X167339850Y-117551200D01*
X167498600Y-117392450D01*
X167498600Y-116651891D01*
X167401927Y-116418502D01*
X167223299Y-116239873D01*
X167088606Y-116184081D01*
X167264151Y-116008843D01*
X167498333Y-115444870D01*
X167498865Y-114834209D01*
X167351642Y-114477900D01*
X173456960Y-114477900D01*
X173456960Y-116077900D01*
X173501238Y-116313217D01*
X173640310Y-116529341D01*
X173852510Y-116674331D01*
X173957441Y-116695580D01*
X173688576Y-116963977D01*
X173469650Y-117491209D01*
X173469152Y-118062087D01*
X173687157Y-118589700D01*
X174090477Y-118993724D01*
X174617709Y-119212650D01*
X175188587Y-119213148D01*
X175716200Y-118995143D01*
X176120224Y-118591823D01*
X176339150Y-118064591D01*
X176339648Y-117493713D01*
X176121643Y-116966100D01*
X175853328Y-116697317D01*
X175939717Y-116681062D01*
X176155841Y-116541990D01*
X176300831Y-116329790D01*
X176351840Y-116077900D01*
X176351840Y-114731800D01*
X178318087Y-114731800D01*
X178427320Y-115280951D01*
X178738389Y-115746498D01*
X179142903Y-116016786D01*
X178926066Y-116119411D01*
X178550159Y-116534377D01*
X178389296Y-116922761D01*
X178511285Y-117144800D01*
X179654200Y-117144800D01*
X179654200Y-117124800D01*
X179908200Y-117124800D01*
X179908200Y-117144800D01*
X181051115Y-117144800D01*
X181173104Y-116922761D01*
X181012241Y-116534377D01*
X180636334Y-116119411D01*
X180419497Y-116016786D01*
X180824011Y-115746498D01*
X181135080Y-115280951D01*
X181244313Y-114731800D01*
X181135080Y-114182649D01*
X180824011Y-113717102D01*
X180679735Y-113620699D01*
X180816517Y-113594962D01*
X181032641Y-113455890D01*
X181177631Y-113243690D01*
X181228640Y-112991800D01*
X181228640Y-111391800D01*
X181184362Y-111156483D01*
X181045290Y-110940359D01*
X180833090Y-110795369D01*
X180581200Y-110744360D01*
X178981200Y-110744360D01*
X178745883Y-110788638D01*
X178529759Y-110927710D01*
X178384769Y-111139910D01*
X178333760Y-111391800D01*
X178333760Y-112991800D01*
X178378038Y-113227117D01*
X178517110Y-113443241D01*
X178729310Y-113588231D01*
X178884289Y-113619615D01*
X178738389Y-113717102D01*
X178427320Y-114182649D01*
X178318087Y-114731800D01*
X176351840Y-114731800D01*
X176351840Y-114477900D01*
X176307562Y-114242583D01*
X176168490Y-114026459D01*
X175956290Y-113881469D01*
X175704400Y-113830460D01*
X174104400Y-113830460D01*
X173869083Y-113874738D01*
X173652959Y-114013810D01*
X173507969Y-114226010D01*
X173456960Y-114477900D01*
X167351642Y-114477900D01*
X167265668Y-114269829D01*
X166834243Y-113837649D01*
X166270270Y-113603467D01*
X165970353Y-113603206D01*
X166079379Y-113440036D01*
X166181000Y-112929154D01*
X166181000Y-112876846D01*
X166123554Y-112588045D01*
X168373961Y-112588045D01*
X168448095Y-112834164D01*
X168985323Y-113027265D01*
X169555554Y-113000078D01*
X169956105Y-112834164D01*
X170030239Y-112588045D01*
X172564961Y-112588045D01*
X172639095Y-112834164D01*
X173176323Y-113027265D01*
X173746554Y-113000078D01*
X174147105Y-112834164D01*
X174221239Y-112588045D01*
X173393100Y-111759905D01*
X172564961Y-112588045D01*
X170030239Y-112588045D01*
X169202100Y-111759905D01*
X168373961Y-112588045D01*
X166123554Y-112588045D01*
X166079379Y-112365964D01*
X165789988Y-111932858D01*
X165356882Y-111643467D01*
X164846000Y-111541846D01*
X164335118Y-111643467D01*
X163902012Y-111932858D01*
X163612621Y-112365964D01*
X163511000Y-112876846D01*
X160663716Y-112876846D01*
X160617506Y-112644536D01*
X160376889Y-112284426D01*
X160016779Y-112043809D01*
X159592000Y-111959315D01*
X159167221Y-112043809D01*
X158807111Y-112284426D01*
X158566494Y-112644536D01*
X158482000Y-113069315D01*
X156133000Y-113069315D01*
X156133000Y-111363523D01*
X167755135Y-111363523D01*
X167782322Y-111933754D01*
X167948236Y-112334305D01*
X168194355Y-112408439D01*
X169022495Y-111580300D01*
X169381705Y-111580300D01*
X170209845Y-112408439D01*
X170455964Y-112334305D01*
X170649065Y-111797077D01*
X170628395Y-111363523D01*
X171946135Y-111363523D01*
X171973322Y-111933754D01*
X172139236Y-112334305D01*
X172385355Y-112408439D01*
X173213495Y-111580300D01*
X173572705Y-111580300D01*
X174400845Y-112408439D01*
X174646964Y-112334305D01*
X174840065Y-111797077D01*
X174812878Y-111226846D01*
X174646964Y-110826295D01*
X174400845Y-110752161D01*
X173572705Y-111580300D01*
X173213495Y-111580300D01*
X172385355Y-110752161D01*
X172139236Y-110826295D01*
X171946135Y-111363523D01*
X170628395Y-111363523D01*
X170621878Y-111226846D01*
X170455964Y-110826295D01*
X170209845Y-110752161D01*
X169381705Y-111580300D01*
X169022495Y-111580300D01*
X168194355Y-110752161D01*
X167948236Y-110826295D01*
X167755135Y-111363523D01*
X156133000Y-111363523D01*
X156133000Y-108277883D01*
X156155030Y-108292603D01*
X156589376Y-108379000D01*
X157194624Y-108379000D01*
X157628970Y-108292603D01*
X157963143Y-108069315D01*
X158482000Y-108069315D01*
X158482000Y-108418685D01*
X158566494Y-108843464D01*
X158807111Y-109203574D01*
X159167221Y-109444191D01*
X159592000Y-109528685D01*
X160016779Y-109444191D01*
X160136064Y-109364487D01*
X167766852Y-109364487D01*
X167984857Y-109892100D01*
X168388177Y-110296124D01*
X168454644Y-110323723D01*
X168448095Y-110326436D01*
X168373961Y-110572555D01*
X169202100Y-111400695D01*
X170030239Y-110572555D01*
X169956105Y-110326436D01*
X169949617Y-110324104D01*
X170013900Y-110297543D01*
X170417924Y-109894223D01*
X170636850Y-109366991D01*
X170636852Y-109364487D01*
X171957852Y-109364487D01*
X172175857Y-109892100D01*
X172579177Y-110296124D01*
X172645644Y-110323723D01*
X172639095Y-110326436D01*
X172564961Y-110572555D01*
X173393100Y-111400695D01*
X174221239Y-110572555D01*
X174147105Y-110326436D01*
X174140617Y-110324104D01*
X174204900Y-110297543D01*
X174608924Y-109894223D01*
X174827850Y-109366991D01*
X174828199Y-108966000D01*
X191640566Y-108966000D01*
X191723157Y-109381212D01*
X191870015Y-109601000D01*
X191723157Y-109820788D01*
X191640566Y-110236000D01*
X191723157Y-110651212D01*
X191760130Y-110706546D01*
X191667700Y-110929691D01*
X191667700Y-111220250D01*
X191826450Y-111379000D01*
X192925700Y-111379000D01*
X192925700Y-111359000D01*
X193179700Y-111359000D01*
X193179700Y-111379000D01*
X194278950Y-111379000D01*
X194437700Y-111220250D01*
X194437700Y-110929691D01*
X194345270Y-110706546D01*
X194382243Y-110651212D01*
X194441971Y-110350936D01*
X202339342Y-110350936D01*
X202364961Y-110961060D01*
X202549157Y-111405748D01*
X202805641Y-111492154D01*
X203706195Y-110591600D01*
X202805641Y-109691046D01*
X202549157Y-109777452D01*
X202339342Y-110350936D01*
X194441971Y-110350936D01*
X194464834Y-110236000D01*
X194382243Y-109820788D01*
X194318908Y-109726000D01*
X197040500Y-109726000D01*
X197331339Y-109668148D01*
X197565868Y-109511441D01*
X202985246Y-109511441D01*
X203885800Y-110411995D01*
X203899943Y-110397853D01*
X204079548Y-110577458D01*
X204065405Y-110591600D01*
X204079548Y-110605743D01*
X203899943Y-110785348D01*
X203885800Y-110771205D01*
X202985246Y-111671759D01*
X203071652Y-111928243D01*
X203645136Y-112138058D01*
X204255260Y-112112439D01*
X204699948Y-111928243D01*
X204786353Y-111671761D01*
X204900910Y-111786318D01*
X204937388Y-111749840D01*
X205061710Y-111943041D01*
X205273910Y-112088031D01*
X205525800Y-112139040D01*
X207325800Y-112139040D01*
X207561117Y-112094762D01*
X207777241Y-111955690D01*
X207922231Y-111743490D01*
X207973240Y-111491600D01*
X207973240Y-109691600D01*
X207928962Y-109456283D01*
X207789890Y-109240159D01*
X207577690Y-109095169D01*
X207325800Y-109044160D01*
X205525800Y-109044160D01*
X205290483Y-109088438D01*
X205074359Y-109227510D01*
X204935202Y-109431174D01*
X204900910Y-109396882D01*
X204786353Y-109511439D01*
X204699948Y-109254957D01*
X204126464Y-109045142D01*
X203516340Y-109070761D01*
X203071652Y-109254957D01*
X202985246Y-109511441D01*
X197565868Y-109511441D01*
X197577901Y-109503401D01*
X197718046Y-109363256D01*
X197769809Y-109384750D01*
X198340687Y-109385248D01*
X198868300Y-109167243D01*
X199078163Y-108957745D01*
X199728361Y-108957745D01*
X199802495Y-109203864D01*
X200339723Y-109396965D01*
X200909954Y-109369778D01*
X201310505Y-109203864D01*
X201384639Y-108957745D01*
X200556500Y-108129605D01*
X199728361Y-108957745D01*
X199078163Y-108957745D01*
X199272324Y-108763923D01*
X199299923Y-108697456D01*
X199302636Y-108704005D01*
X199548755Y-108778139D01*
X200376895Y-107950000D01*
X200736105Y-107950000D01*
X201564245Y-108778139D01*
X201810364Y-108704005D01*
X202003465Y-108166777D01*
X201976278Y-107596546D01*
X201810364Y-107195995D01*
X201564245Y-107121861D01*
X200736105Y-107950000D01*
X200376895Y-107950000D01*
X199548755Y-107121861D01*
X199302636Y-107195995D01*
X199300304Y-107202483D01*
X199273743Y-107138200D01*
X199078140Y-106942255D01*
X199728361Y-106942255D01*
X200556500Y-107770395D01*
X201384639Y-106942255D01*
X201310505Y-106696136D01*
X200773277Y-106503035D01*
X200203046Y-106530222D01*
X199802495Y-106696136D01*
X199728361Y-106942255D01*
X199078140Y-106942255D01*
X198870423Y-106734176D01*
X198343191Y-106515250D01*
X197772313Y-106514752D01*
X197244700Y-106732757D01*
X196840676Y-107136077D01*
X196621750Y-107663309D01*
X196621277Y-108206000D01*
X194151863Y-108206000D01*
X194147045Y-108198789D01*
X193795046Y-107963591D01*
X193379834Y-107881000D01*
X192725566Y-107881000D01*
X192310354Y-107963591D01*
X191958355Y-108198789D01*
X191723157Y-108550788D01*
X191640566Y-108966000D01*
X174828199Y-108966000D01*
X174828348Y-108796113D01*
X174610343Y-108268500D01*
X174207023Y-107864476D01*
X173679791Y-107645550D01*
X173108913Y-107645052D01*
X172581300Y-107863057D01*
X172177276Y-108266377D01*
X171958350Y-108793609D01*
X171957852Y-109364487D01*
X170636852Y-109364487D01*
X170637348Y-108796113D01*
X170419343Y-108268500D01*
X170016023Y-107864476D01*
X169488791Y-107645550D01*
X168917913Y-107645052D01*
X168390300Y-107863057D01*
X167986276Y-108266377D01*
X167767350Y-108793609D01*
X167766852Y-109364487D01*
X160136064Y-109364487D01*
X160376889Y-109203574D01*
X160617506Y-108843464D01*
X160702000Y-108418685D01*
X160702000Y-108087383D01*
X163510769Y-108087383D01*
X163713582Y-108578229D01*
X164088796Y-108954098D01*
X164579287Y-109157768D01*
X165110383Y-109158231D01*
X165601229Y-108955418D01*
X165977098Y-108580204D01*
X166180768Y-108089713D01*
X166181231Y-107558617D01*
X166079660Y-107312795D01*
X178704716Y-107312795D01*
X178953106Y-107913943D01*
X179412637Y-108374278D01*
X180013352Y-108623716D01*
X180663795Y-108624284D01*
X181264943Y-108375894D01*
X181725278Y-107916363D01*
X181974716Y-107315648D01*
X181974718Y-107312795D01*
X185204716Y-107312795D01*
X185453106Y-107913943D01*
X185912637Y-108374278D01*
X186513352Y-108623716D01*
X187163795Y-108624284D01*
X187764943Y-108375894D01*
X188225278Y-107916363D01*
X188474716Y-107315648D01*
X188475284Y-106665205D01*
X188226894Y-106064057D01*
X187767363Y-105603722D01*
X187166648Y-105354284D01*
X186516205Y-105353716D01*
X185915057Y-105602106D01*
X185454722Y-106061637D01*
X185205284Y-106662352D01*
X185204716Y-107312795D01*
X181974718Y-107312795D01*
X181975284Y-106665205D01*
X181726894Y-106064057D01*
X181267363Y-105603722D01*
X180666648Y-105354284D01*
X180016205Y-105353716D01*
X179415057Y-105602106D01*
X178954722Y-106061637D01*
X178705284Y-106662352D01*
X178704716Y-107312795D01*
X166079660Y-107312795D01*
X165978418Y-107067771D01*
X165603204Y-106691902D01*
X165112713Y-106488232D01*
X164581617Y-106487769D01*
X164090771Y-106690582D01*
X163714902Y-107065796D01*
X163511232Y-107556287D01*
X163510769Y-108087383D01*
X160702000Y-108087383D01*
X160702000Y-108069315D01*
X160617506Y-107644536D01*
X160376889Y-107284426D01*
X160016779Y-107043809D01*
X159592000Y-106959315D01*
X159167221Y-107043809D01*
X158807111Y-107284426D01*
X158566494Y-107644536D01*
X158482000Y-108069315D01*
X157963143Y-108069315D01*
X157997190Y-108046566D01*
X158243227Y-107678346D01*
X158329624Y-107244000D01*
X158243227Y-106809654D01*
X157997190Y-106441434D01*
X157628970Y-106195397D01*
X157194624Y-106109000D01*
X156589376Y-106109000D01*
X156155030Y-106195397D01*
X156133000Y-106210117D01*
X156133000Y-103745600D01*
X164078760Y-103745600D01*
X164078760Y-105245600D01*
X164123038Y-105480917D01*
X164262110Y-105697041D01*
X164474310Y-105842031D01*
X164726200Y-105893040D01*
X165626200Y-105893040D01*
X165861517Y-105848762D01*
X165994729Y-105763042D01*
X166152199Y-105840008D01*
X166319200Y-105713102D01*
X166319200Y-104622600D01*
X166299200Y-104622600D01*
X166299200Y-104368600D01*
X166319200Y-104368600D01*
X166319200Y-103278098D01*
X166573200Y-103278098D01*
X166573200Y-104368600D01*
X166593200Y-104368600D01*
X166593200Y-104622600D01*
X166573200Y-104622600D01*
X166573200Y-105713102D01*
X166740201Y-105840008D01*
X167076926Y-105675430D01*
X167300988Y-105825143D01*
X167716200Y-105907734D01*
X168131412Y-105825143D01*
X168483411Y-105589945D01*
X168718609Y-105237946D01*
X168801200Y-104822734D01*
X168801200Y-104168466D01*
X168718609Y-103753254D01*
X168483411Y-103401255D01*
X168131412Y-103166057D01*
X167716200Y-103083466D01*
X167300988Y-103166057D01*
X167076926Y-103315770D01*
X166740201Y-103151192D01*
X166573200Y-103278098D01*
X166319200Y-103278098D01*
X166152199Y-103151192D01*
X165994125Y-103228453D01*
X165878090Y-103149169D01*
X165626200Y-103098160D01*
X164726200Y-103098160D01*
X164490883Y-103142438D01*
X164274759Y-103281510D01*
X164129769Y-103493710D01*
X164078760Y-103745600D01*
X156133000Y-103745600D01*
X156133000Y-102812795D01*
X178704716Y-102812795D01*
X178953106Y-103413943D01*
X179412637Y-103874278D01*
X180013352Y-104123716D01*
X180663795Y-104124284D01*
X181264943Y-103875894D01*
X181725278Y-103416363D01*
X181974716Y-102815648D01*
X181974718Y-102812795D01*
X185204716Y-102812795D01*
X185453106Y-103413943D01*
X185912637Y-103874278D01*
X186513352Y-104123716D01*
X187163795Y-104124284D01*
X187764943Y-103875894D01*
X188225278Y-103416363D01*
X188233946Y-103395487D01*
X196608552Y-103395487D01*
X196826557Y-103923100D01*
X197229877Y-104327124D01*
X197757109Y-104546050D01*
X198327987Y-104546548D01*
X198855600Y-104328543D01*
X199065463Y-104119045D01*
X199715661Y-104119045D01*
X199789795Y-104365164D01*
X200327023Y-104558265D01*
X200897254Y-104531078D01*
X201297805Y-104365164D01*
X201371939Y-104119045D01*
X200543800Y-103290905D01*
X199715661Y-104119045D01*
X199065463Y-104119045D01*
X199259624Y-103925223D01*
X199287223Y-103858756D01*
X199289936Y-103865305D01*
X199536055Y-103939439D01*
X200364195Y-103111300D01*
X200723405Y-103111300D01*
X201551545Y-103939439D01*
X201797664Y-103865305D01*
X201990765Y-103328077D01*
X201963578Y-102757846D01*
X201797664Y-102357295D01*
X201551545Y-102283161D01*
X200723405Y-103111300D01*
X200364195Y-103111300D01*
X199536055Y-102283161D01*
X199289936Y-102357295D01*
X199287604Y-102363783D01*
X199261043Y-102299500D01*
X199065440Y-102103555D01*
X199715661Y-102103555D01*
X200543800Y-102931695D01*
X201371939Y-102103555D01*
X201297805Y-101857436D01*
X200760577Y-101664335D01*
X200190346Y-101691522D01*
X199789795Y-101857436D01*
X199715661Y-102103555D01*
X199065440Y-102103555D01*
X198857723Y-101895476D01*
X198330491Y-101676550D01*
X197759613Y-101676052D01*
X197232000Y-101894057D01*
X196827976Y-102297377D01*
X196609050Y-102824609D01*
X196608552Y-103395487D01*
X188233946Y-103395487D01*
X188474716Y-102815648D01*
X188475284Y-102165205D01*
X188226894Y-101564057D01*
X187767363Y-101103722D01*
X187166648Y-100854284D01*
X186516205Y-100853716D01*
X185915057Y-101102106D01*
X185454722Y-101561637D01*
X185205284Y-102162352D01*
X185204716Y-102812795D01*
X181974718Y-102812795D01*
X181975284Y-102165205D01*
X181726894Y-101564057D01*
X181267363Y-101103722D01*
X180666648Y-100854284D01*
X180016205Y-100853716D01*
X179415057Y-101102106D01*
X178954722Y-101561637D01*
X178705284Y-102162352D01*
X178704716Y-102812795D01*
X156133000Y-102812795D01*
X156133000Y-100735600D01*
X215469000Y-100735600D01*
X215469000Y-107049460D01*
M02*
