G04 #@! TF.FileFunction,Soldermask,Top*
%FSLAX46Y46*%
G04 Gerber Fmt 4.6, Leading zero omitted, Abs format (unit mm)*
G04 Created by KiCad (PCBNEW 4.0.7) date Thursday, December 14, 2017 'PMt' 09:42:57 PM*
%MOMM*%
%LPD*%
G01*
G04 APERTURE LIST*
%ADD10C,0.100000*%
%ADD11C,1.600000*%
%ADD12R,1.350000X0.400000*%
%ADD13O,0.950000X1.250000*%
%ADD14O,1.550000X1.000000*%
%ADD15C,2.000000*%
%ADD16O,0.900000X1.500000*%
%ADD17R,0.900000X1.500000*%
%ADD18R,1.600000X1.600000*%
%ADD19O,1.600000X1.600000*%
%ADD20O,1.500000X0.900000*%
%ADD21R,1.500000X0.900000*%
%ADD22R,1.700000X1.700000*%
%ADD23O,1.700000X1.700000*%
%ADD24R,1.800000X1.800000*%
%ADD25C,1.800000*%
%ADD26C,1.400000*%
%ADD27O,1.400000X1.400000*%
G04 APERTURE END LIST*
D10*
D11*
X169202100Y-109080300D03*
X169202100Y-111580300D03*
X173393100Y-109080300D03*
X173393100Y-111580300D03*
X198056500Y-107950000D03*
X200556500Y-107950000D03*
X198043800Y-103111300D03*
X200543800Y-103111300D03*
D12*
X159592000Y-109444000D03*
X159592000Y-110094000D03*
X159592000Y-110744000D03*
X159592000Y-111394000D03*
X159592000Y-112044000D03*
D13*
X159592000Y-108244000D03*
X159592000Y-113244000D03*
D14*
X156892000Y-107244000D03*
X156892000Y-114244000D03*
D15*
X180340000Y-106989000D03*
X180340000Y-102489000D03*
X186840000Y-106989000D03*
X186840000Y-102489000D03*
D16*
X166446200Y-104495600D03*
X167716200Y-104495600D03*
D17*
X165176200Y-104495600D03*
D18*
X179781200Y-112191800D03*
D19*
X187401200Y-119811800D03*
X179781200Y-114731800D03*
X187401200Y-117271800D03*
X179781200Y-117271800D03*
X187401200Y-114731800D03*
X179781200Y-119811800D03*
X187401200Y-112191800D03*
D20*
X193052700Y-110236000D03*
X193052700Y-108966000D03*
D21*
X193052700Y-111506000D03*
D22*
X214782400Y-108546900D03*
D23*
X214782400Y-111086900D03*
X214782400Y-113626900D03*
D18*
X174904400Y-115277900D03*
D11*
X174904400Y-117777900D03*
D18*
X193230500Y-115379500D03*
D11*
X193230500Y-117879500D03*
D24*
X165963600Y-117678200D03*
D25*
X165963600Y-115138200D03*
D24*
X206425800Y-110591600D03*
D25*
X203885800Y-110591600D03*
D26*
X164846000Y-107823000D03*
D27*
X164846000Y-112903000D03*
D26*
X196202300Y-112014000D03*
D27*
X201282300Y-112014000D03*
M02*
